<?xml version="1.0" encoding="UTF-8"?>
<!-- Generator: Adobe Illustrator 16.0.0, SVG Export Plug-In . SVG Version: 6.00 Build 0)  -->
<svg id="Isolation_Mode" width="350" height="150" enable-background="new 0 291.5 612 108" version="1.1" viewBox="0 291.5 350 150" xml:space="preserve" xmlns="http://www.w3.org/2000/svg" xmlns:cc="http://creativecommons.org/ns#" xmlns:dc="http://purl.org/dc/elements/1.1/" xmlns:rdf="http://www.w3.org/1999/02/22-rdf-syntax-ns#"><metadata><rdf:RDF><cc:Work rdf:about=""><dc:format>image/svg+xml</dc:format><dc:type rdf:resource="http://purl.org/dc/dcmitype/StillImage"/><dc:title/></cc:Work></rdf:RDF></metadata><g fill="#4d4d4f" stroke-width=".57918"><path d="m12.974 363.55v-26.237h1.1584v26.237l0.11584 7.9927-0.28959 3.2434s-0.28959 2.3167-1.6217 3.5909c0 0-0.86877 1.0425-1.7955 1.8534-0.92669 0.81086-1.2742 1.8534-1.2742 1.8534l-0.28959 1.8534 1.9692-2.6642c2.0271-2.143 3.9384-3.8805 4.228-7.066l0.05792-0.98461v-35.909h1.2163v37.879s-0.17375 5.1547-2.143 9.6724c0 0-0.75294 1.6217-1.5638 2.9538-1.0425 1.7376-2.4326 2.6642-3.5909 5.3285l-0.11584 1.7955-1.5059 0.0579-0.11584-3.7068s-0.23167-0.69502-0.34751-1.9113c-0.11584-1.2163-0.75294-2.3167-0.75294-2.3167l-0.11584-0.17372c-6.8344-7.9348-6.1393-14.943-6.1393-14.943l-0.057918-1.0425v-33.593h1.1004l0.057918 30.407 0.11584 2.0851s-0.23167 2.5484 1.5638 4.5176c1.2742 1.39 1.39 1.3321 2.4326 2.5484 0.98461 1.1584 1.6217 2.7222 1.6217 2.7222l0.057918-1.448-0.52126-1.448-0.81086-1.0425c-3.9384-3.3013-3.3593-7.4715-3.3593-7.4715l-0.057918-30.813h1.0425v21.488l0.34751 1.8534s0.81086 2.4905 1.6217 4.4597c1.3321 3.2434 2.3746 5.1547 2.3746 5.1547s-0.17375-2.6642-0.52126-3.2434c-0.34751-0.6371-1.0425-2.2588-1.0425-2.2588-0.86877-2.143-1.2163-4.0543-1.2163-4.0543l-0.34751-1.5059-0.057918-1.1584v-20.735h1.0425v13.321c0 2.4326 0.57918 3.3593 1.0425 4.286 0.40543 0.92669 0.86877 2.6063 0.86877 2.6063s0.34751-0.98461-0.40543-4.1122c-0.23167-0.81086-0.40543-3.7647-0.40543-3.7647v-12.279h1.0425v8.1086s0.34751 3.4751 0.69502 2.5484c0.34751-0.98461 0.40543-1.9692 0.40543-1.9692v-8.7457h1.1004v18.65s-0.11584 2.3746-0.57918 3.8226c-0.57918 1.7375-0.34751 2.838-0.34751 2.838s0.6371-0.75294 1.1584-2.4326c0.23167-0.81085 0.92669-3.3013 0.92669-3.3013v-19.576h1.1004v25.832s-0.28959 2.143-1.39 5.2706c-0.75294 2.2009-1.1004 2.6063-1.2742 3.3592-0.23167 1.1004-0.11584 2.2009-0.11584 2.2009l1.5059-3.4172c0.34751-0.75294 0.86877-1.7955 0.86877-1.7955s0.34751-0.86877 0.86877-2.4326z"/><path d="m28.496 357.87c0.34751 0.11584 0.75294 0.34751 1.1004 0.75294 0.17376 0.17376 0.23167 0.40543 0.34751 0.75294 0.11584 0.6371 0.11584 1.0425-0.23167 1.5059-0.34751 0.46335-0.69502 0.52127-1.1584 0.46335-0.52126 0-0.81086-0.17375-1.1584-0.23167-0.34751-0.0579-0.6371-0.28959-0.86877-0.46335-0.23167-0.17375-0.34751-0.46334-0.46335-0.92669-0.11584-0.52127-0.05792-0.81086 0.05792-1.2163 0.05792-0.34751 0.11584-0.52127 0.40543-0.75294 0.28959-0.17376 0.52126-0.23167 0.92669-0.17376 0.17376 0 0.40543 0.0579 0.57918 0.11584z"/><path d="m22.299 352.37c0.05792 0.40543 0.11584 0.86877 0.17376 1.3321 0.11584 0.75294 0.23167 1.2163 0.28959 1.5059 0 0.23167 0 0.46334-0.23167 0.57918-0.11584 0.11583-0.17376 0.0579-0.17376 0.0579-0.17376-0.0579-0.28959-0.17376-0.34751-0.57919-0.05792-0.46334-0.17376-0.92669-0.17376-1.39 0-0.46335-0.05792-0.69502 0-1.2163 0-0.23167 0.05792-0.46334 0.11584-0.52126 0 0 0.05792-0.0579 0.17376 0 0.11584 0 0.17376 0.0579 0.17376 0.23167"/><path d="m22.414 347.91v0.46334c0 0.34751 0.05792 0.92669 0.17376 1.5638 0.17376 0.86878 0.23167 1.2742 0.11584 1.6217-0.05792 0.11583-0.11584 0.17375-0.17376 0.23167-0.17376 0.17375-0.28959 0.11583-0.40543-0.0579-0.17376-0.23167-0.23167-0.52126-0.28959-0.98461l-0.05792-0.75294c-0.05792-0.75293-0.05792-1.2163 0.05792-1.6796 0.05792-0.28959 0.05792-0.52126 0.23167-0.69502 0.05792-0.0579 0.05792-0.0579 0.17376-0.0579 0.11584 0 0.17375 0.11583 0.17375 0.34751"/><path d="m22.299 356.25c0.05792 0.34751 0.11584 0.86878 0.17376 1.3321 0.11584 0.75294 0.23167 1.2163 0.28959 1.5059 0.05792 0.23167 0 0.46334-0.23167 0.6371-0.11584 0.0579-0.17376 0.0579-0.23167 0.0579-0.17376-0.0579-0.28959-0.17376-0.34751-0.52127-0.05792-0.46334-0.17375-0.92669-0.17375-1.39v-1.2742c0-0.23167 0.05792-0.46334 0.11584-0.52126 0-0.0579 0.05792-0.0579 0.17376-0.0579 0.17376 0 0.23167 0.0579 0.23167 0.23167"/><path d="m28.496 354.11c0.34751 0.11583 0.75294 0.34751 1.1004 0.75294 0.17376 0.17375 0.23167 0.40542 0.34751 0.75293 0.11584 0.6371 0.11584 1.0425-0.23167 1.5059-0.34751 0.46334-0.69502 0.52126-1.1584 0.46334-0.52126 0-0.81086-0.17375-1.1584-0.23167-0.34751-0.0579-0.6371-0.28959-0.86877-0.46335-0.23167-0.17375-0.34751-0.46334-0.46335-0.92669-0.11584-0.46334-0.05792-0.81085 0.05792-1.1584 0.05792-0.34751 0.11584-0.52127 0.40543-0.75294 0.28959-0.17375 0.52126-0.23167 0.92669-0.17375 0.17376 0 0.40543 0.0579 0.57918 0.11583z"/><path d="m28.496 365.52c0.34751 0.11584 0.75294 0.34751 1.1004 0.75294 0.17376 0.17376 0.23167 0.40543 0.34751 0.75294 0.11584 0.6371 0.11584 1.0425-0.23167 1.5059-0.34751 0.46335-0.69502 0.52127-1.1584 0.46335-0.52126 0-0.81086-0.17376-1.1584-0.23167-0.34751-0.0579-0.6371-0.28959-0.86877-0.46335-0.23167-0.17375-0.34751-0.46335-0.46335-0.92669-0.11584-0.46335-0.05792-0.81086 0.05792-1.1584 0.05792-0.34751 0.11584-0.52126 0.40543-0.75293 0.28959-0.17376 0.52126-0.23168 0.92669-0.17376 0.17376 0 0.40543 0.0579 0.57918 0.11584z"/><path d="m28.496 361.7c0.34751 0.11584 0.75294 0.34751 1.1004 0.75294 0.17376 0.17375 0.23167 0.40542 0.34751 0.75293 0.11584 0.6371 0.11584 1.0425-0.23167 1.5059-0.34751 0.46334-0.69502 0.52126-1.1584 0.46334-0.52126 0-0.81086-0.17375-1.1584-0.23167-0.34751-0.0579-0.6371-0.28959-0.86877-0.46334-0.23167-0.17376-0.34751-0.46335-0.46335-0.9267-0.11584-0.46334-0.05792-0.81085 0.05792-1.1584 0.05792-0.34751 0.11584-0.52127 0.40543-0.75294 0.28959-0.23167 0.52126-0.23167 0.92669-0.23167 0.23167 0 0.40543 0.0579 0.57918 0.11583z"/><path d="m28.496 373.16c0.34751 0.11584 0.75294 0.34751 1.1004 0.75294 0.17376 0.17376 0.23167 0.40543 0.34751 0.75294 0.11584 0.6371 0.11584 1.0425-0.23167 1.5059-0.34751 0.46335-0.69502 0.52127-1.1584 0.46335-0.52126-0.0579-0.81086-0.17376-1.1584-0.23167-0.34751-0.0579-0.6371-0.2896-0.86877-0.46335s-0.34751-0.46335-0.46335-0.92669c-0.11584-0.46335-0.05792-0.81086 0.05792-1.1584 0.05792-0.34751 0.11584-0.52126 0.40543-0.75293 0.28959-0.17376 0.52126-0.23168 0.92669-0.17376 0.17376 0 0.40543 0.0579 0.57918 0.0579z"/><path d="m28.496 369.34c0.34751 0.11584 0.75294 0.34751 1.1004 0.75294 0.17376 0.17375 0.23167 0.46334 0.34751 0.75293 0.11584 0.6371 0.11584 1.0425-0.23167 1.5059-0.34751 0.46334-0.69502 0.52126-1.1584 0.46334-0.52126-0.0579-0.81086-0.17375-1.1584-0.23167-0.34751-0.0579-0.57918-0.28959-0.86877-0.46334-0.23167-0.17376-0.34751-0.46335-0.46335-0.9267-0.11584-0.52126-0.05792-0.81085 0.05792-1.2163 0.05792-0.34751 0.11584-0.52126 0.40543-0.75294 0.28959-0.17375 0.52126-0.23167 0.92669-0.17375 0.17376 0 0.40543 0.0579 0.57918 0.11583z"/><path d="m28.496 380.81c0.34751 0.11584 0.75294 0.34751 1.1004 0.75294 0.17376 0.17376 0.23167 0.40543 0.34751 0.75294 0.11584 0.6371 0.11584 1.0425-0.23167 1.5059-0.34751 0.46335-0.69502 0.52127-1.1584 0.46335-0.52126-0.0579-0.81086-0.17376-1.1584-0.23167-0.34751-0.0579-0.6371-0.2896-0.86877-0.46335-0.23167-0.17376-0.34751-0.46335-0.46335-0.92669-0.11584-0.52127-0.05792-0.81086 0.05792-1.2163 0.05792-0.34751 0.11584-0.52126 0.40543-0.75293 0.28959-0.17376 0.52126-0.23168 0.92669-0.17376 0.17376 0 0.40543 0.0579 0.57918 0.11584z"/><path d="m28.496 376.99c0.34751 0.11583 0.75294 0.34751 1.1004 0.75294 0.17376 0.17375 0.23167 0.40542 0.34751 0.75293 0.11584 0.6371 0.11584 1.0425-0.23167 1.5059-0.34751 0.46334-0.69502 0.52126-1.1584 0.46334-0.52126 0-0.81086-0.17375-1.1584-0.23167-0.34751-0.0579-0.6371-0.28959-0.86877-0.46335-0.23167-0.17375-0.34751-0.46334-0.46335-0.92669-0.11584-0.52126-0.05792-0.81085 0.05792-1.2163 0.05792-0.34751 0.11584-0.52127 0.40543-0.75294 0.28959-0.23167 0.52126-0.23167 0.92669-0.17375 0.17376 0 0.40543 0 0.57918 0.11583z"/><path d="m28.496 388.4c0.34751 0.11584 0.75294 0.34751 1.1004 0.75294 0.17376 0.17376 0.23167 0.40543 0.34751 0.75294 0.11584 0.6371 0.11584 1.0425-0.23167 1.5059-0.34751 0.46335-0.69502 0.52127-1.1584 0.46335-0.52126 0-0.81086-0.17376-1.1584-0.23167-0.34751-0.0579-0.57918-0.28959-0.86877-0.46335-0.23167-0.17375-0.34751-0.46335-0.46335-0.92669-0.11584-0.52127-0.05792-0.81086 0.05792-1.1584 0.05792-0.34751 0.11584-0.52126 0.40543-0.75293 0.28959-0.23168 0.52126-0.23168 0.92669-0.23168 0.23167 0 0.40543 0.0579 0.57918 0.11584z"/><path d="m28.496 384.63c0.34751 0.11583 0.75294 0.34751 1.1004 0.75294 0.17376 0.17375 0.23167 0.40542 0.34751 0.75293 0.11584 0.6371 0.11584 1.0425-0.23167 1.5059-0.34751 0.46334-0.69502 0.52126-1.1584 0.52126-0.52126-0.0579-0.81086-0.17375-1.1584-0.23167-0.34751-0.0579-0.57918-0.28959-0.86877-0.46335-0.23167-0.17375-0.34751-0.46334-0.46335-0.92669-0.11584-0.46335-0.05792-0.81086 0.05792-1.2163 0.05792-0.34751 0.11584-0.52127 0.40543-0.75294 0.28959-0.23167 0.52126-0.23167 0.92669-0.23167 0.17376 0 0.40543 0.0579 0.57918 0.11583z"/><path d="m28.496 392.22c0.34751 0.11584 0.75294 0.34751 1.1004 0.75294 0.17376 0.17375 0.23167 0.40542 0.34751 0.75293 0.11584 0.6371 0.11584 1.0425-0.23167 1.5059-0.34751 0.46334-0.69502 0.52126-1.1584 0.52126-0.52126-0.0579-0.81086-0.17375-1.1584-0.23167-0.34751-0.0579-0.6371-0.28959-0.86877-0.46335-0.23167-0.17375-0.34751-0.46334-0.46335-0.92669-0.11584-0.52126-0.05792-0.81085 0.05792-1.1584 0.05792-0.34751 0.11584-0.52127 0.40543-0.75294 0.28959-0.23167 0.52126-0.23167 0.92669-0.23167 0.23167 0 0.40543 0.0579 0.57918 0.11583h0.11584z"/><path d="m25.716 358.51c-0.05792 0.34751-0.28959 0.46334-0.57918 0.57918-0.34751 0.0579-0.52126 0.0579-0.81086-0.11584-0.28959-0.17375-0.52126-0.28959-0.69502-0.52126-0.17376-0.23168-0.46335-0.46335-0.6371-0.98461-0.17376-0.46335-0.34751-0.98461-0.28959-1.448 0.11584-0.46335 0.40543-0.69502 0.69502-0.75294 0.28959-0.0579 0.75294 0.0579 0.98461 0.28959 0.23167 0.23168 0.46335 0.46335 0.69502 0.69502 0.28959 0.34751 0.69502 1.1584 0.69502 1.7955 0 0.11584 0 0.28959-0.05792 0.46335"/><path d="m25.716 362.39c-0.05792 0.34751-0.28959 0.46334-0.57918 0.57918-0.34751 0.0579-0.52126 0.0579-0.81086-0.11584-0.28959-0.17375-0.52126-0.3475-0.69502-0.52126-0.17376-0.23167-0.46335-0.46335-0.6371-0.98461-0.17376-0.46335-0.34751-0.98461-0.28959-1.5059 0.11584-0.46335 0.40543-0.69502 0.69502-0.75294 0.28959-0.0579 0.75294 0.0579 0.98461 0.28959 0.23167 0.23167 0.46335 0.46335 0.69502 0.69502 0.28959 0.34751 0.69502 1.1584 0.69502 1.7955 0 0.17376 0 0.34751-0.05792 0.52127"/><path d="m25.716 366.27c-0.05792 0.34751-0.28959 0.46335-0.57918 0.57918-0.34751 0.0579-0.52126 0.0579-0.81086-0.11583-0.28959-0.17376-0.52126-0.28959-0.69502-0.52127-0.17376-0.23167-0.46335-0.46334-0.6371-0.98461-0.17376-0.46334-0.34751-0.98461-0.28959-1.448 0.11584-0.46335 0.40543-0.69502 0.69502-0.75294 0.28959-0.0579 0.75294 0.0579 0.98461 0.28959 0.23167 0.23167 0.46335 0.46335 0.69502 0.69502 0.17376 0.17375 0.34751 0.52126 0.46335 0.81086 0.17376 0.28959 0.23167 0.6371 0.17376 0.98461 0.05792 0.11583 0.05792 0.28959 0 0.46334"/><path d="m25.716 370.15c-0.05792 0.34751-0.28959 0.46335-0.57918 0.52127-0.34751 0.0579-0.52126 0.0579-0.81086-0.11584-0.28959-0.17375-0.52126-0.34751-0.69502-0.52126-0.17376-0.23167-0.46335-0.46335-0.6371-0.92669-0.17376-0.46335-0.34751-0.98461-0.28959-1.448 0.11584-0.46335 0.40543-0.69502 0.69502-0.75294 0.28959-0.0579 0.75294 0.0579 0.98461 0.28959 0.23167 0.23168 0.46335 0.46335 0.69502 0.69502 0.28959 0.34751 0.69502 1.1584 0.69502 1.7955 0 0.11584 0 0.28959-0.05792 0.46334"/><path d="m25.716 374.03c-0.05792 0.34751-0.28959 0.46334-0.57918 0.52126-0.34751 0.0579-0.52126 0.0579-0.81086-0.0579-0.28959-0.17375-0.52126-0.34751-0.69502-0.52126-0.17376-0.23167-0.46335-0.46335-0.6371-0.98461-0.17376-0.46335-0.34751-0.98461-0.28959-1.448 0.11584-0.46334 0.40543-0.69502 0.69502-0.75293 0.28959-0.0579 0.75294 0.0579 0.98461 0.28959 0.23167 0.23167 0.46335 0.46334 0.69502 0.69502 0.28959 0.34751 0.69502 1.1584 0.69502 1.7955 0 0.11584 0 0.28959-0.05792 0.46335"/><path d="m25.716 377.91c-0.05792 0.34751-0.28959 0.46335-0.57918 0.52126-0.34751 0.0579-0.52126 0.0579-0.81086-0.11583-0.28959-0.17376-0.52126-0.28959-0.69502-0.52127-0.17376-0.23167-0.46335-0.46334-0.6371-0.98461-0.17376-0.46334-0.34751-0.98461-0.28959-1.448 0.11584-0.46335 0.40543-0.69502 0.69502-0.75294 0.28959-0.0579 0.75294 0.0579 0.98461 0.28959 0.23167 0.23167 0.46335 0.46335 0.69502 0.69502 0.28959 0.34751 0.69502 1.1584 0.69502 1.7955 0 0.17375 0 0.34751-0.05792 0.52126"/><path d="m25.716 381.79c-0.05792 0.34751-0.28959 0.46335-0.57918 0.57919-0.34751 0.0579-0.52126 0.0579-0.81086-0.11584-0.28959-0.17376-0.52126-0.28959-0.69502-0.52126-0.17376-0.23168-0.46335-0.46335-0.6371-0.98462-0.17376-0.46334-0.34751-0.98461-0.28959-1.448 0.11584-0.46335 0.40543-0.69502 0.69502-0.75294 0.28959-0.0579 0.75294 0.0579 0.98461 0.28959 0.23167 0.23168 0.46335 0.46335 0.69502 0.69502 0.28959 0.34751 0.69502 1.1584 0.69502 1.7955 0 0.11583 0 0.28959-0.05792 0.46334"/><path d="m25.716 385.67c-0.05792 0.34751-0.28959 0.52126-0.57918 0.57918-0.34751 0.0579-0.52126 0.0579-0.81086-0.11584-0.28959-0.17375-0.52126-0.34751-0.69502-0.52126-0.17376-0.23167-0.46335-0.46335-0.6371-0.98461-0.17376-0.46335-0.34751-0.98461-0.28959-1.448 0.11584-0.46334 0.40543-0.69502 0.69502-0.75294 0.28959-0.0579 0.75294 0.0579 0.98461 0.23168 0.23167 0.23167 0.46335 0.46334 0.69502 0.69502 0.17376 0.17375 0.34751 0.52126 0.46335 0.81085 0.17376 0.28959 0.23167 0.6371 0.17376 0.98461 0.05792 0.17376 0.05792 0.34751 0 0.52127"/><path d="m25.716 389.55c-0.05792 0.34751-0.28959 0.46335-0.57918 0.52126-0.34751 0.0579-0.52126 0.0579-0.81086-0.11583-0.28959-0.17376-0.52126-0.28959-0.69502-0.52127-0.17376-0.23167-0.46335-0.46334-0.6371-0.98461-0.17376-0.46334-0.34751-0.98461-0.28959-1.448 0.11584-0.46335 0.40543-0.69502 0.69502-0.75294 0.28959-0.0579 0.75294 0.0579 0.98461 0.28959 0.23167 0.23167 0.46335 0.46335 0.69502 0.69502 0.17376 0.17375 0.34751 0.52126 0.46335 0.81085 0.17376 0.2896 0.23167 0.63711 0.17376 0.98462 0.05792 0.17375 0.05792 0.28959 0 0.52126"/><path d="m25.658 393.2c-0.11584 0.34751-0.28959 0.46335-0.57918 0.57918-0.34751 0.0579-0.46335 0.0579-0.81086-0.11583-0.34751-0.17376-0.52126-0.34751-0.69502-0.52127-0.17375-0.23167-0.46335-0.46335-0.6371-0.98461-0.17376-0.46335-0.34751-0.98461-0.28959-1.448 0.11584-0.46334 0.40543-0.69501 0.69502-0.75293 0.28959-0.0579 0.75294 0.0579 0.98461 0.28959 0.23167 0.23167 0.52126 0.52126 0.69502 0.69502 0.17376 0.17375 0.34751 0.52126 0.52126 0.81085 0.11584 0.28959 0.23167 0.6371 0.17376 0.92669 0.05792 0.17376 0 0.34751-0.05792 0.52127"/><path d="m22.299 360.07c0.05792 0.40543 0.11584 0.86877 0.17376 1.3321 0.11584 0.75294 0.23167 1.2163 0.28959 1.5059 0.05792 0.23168 0 0.46335-0.23167 0.57919-0.11584 0.0579-0.17376 0.0579-0.23167 0.0579-0.17376-0.0579-0.28959-0.17375-0.34751-0.57918-0.05792-0.46334-0.17375-0.92669-0.17375-1.39v-1.2742c0-0.23167 0.05792-0.40543 0.11584-0.52126 0 0 0.05792-0.0579 0.17376 0 0.17376 0.0579 0.23167 0.17375 0.23167 0.28959"/><path d="m22.299 363.9c0.05792 0.40543 0.05792 0.86878 0.17376 1.3321 0.11584 0.75294 0.23167 1.2163 0.28959 1.5059 0 0.23167-0.05792 0.46334-0.23167 0.57918-0.11584 0.11584-0.17376 0.0579-0.23167 0.0579-0.17376-0.0579-0.28959-0.17376-0.34751-0.52127-0.05792-0.46334-0.17375-0.92669-0.17375-1.39 0-0.46335-0.05792-0.75294 0-1.2742 0-0.23167 0.05792-0.40542 0.11584-0.52126 0-0.0579 0.05792-0.0579 0.17376-0.0579 0.11584 0.0579 0.17376 0.17376 0.23167 0.28959"/><path d="m22.299 367.78c0.05792 0.34751 0.05792 0.86877 0.17376 1.3321 0.11584 0.75293 0.23167 1.2163 0.28959 1.5059 0 0.23167-0.05792 0.46335-0.23167 0.57918-0.11584 0.0579-0.17376 0.0579-0.23167 0.0579-0.17376-0.0579-0.28959-0.17375-0.34751-0.57918-0.05792-0.46335-0.17375-0.92669-0.17375-1.39s-0.05792-0.69502 0-1.2163c0-0.23168 0.05792-0.46335 0.11584-0.52127 0-0.0579 0.05792-0.0579 0.17376-0.0579 0.11584 0.0579 0.17376 0.11584 0.23167 0.2896"/><path d="m22.299 371.6c0.05792 0.40543 0.11584 0.86877 0.17376 1.3321 0.11584 0.75294 0.23167 1.2163 0.28959 1.5059 0.05792 0.23167 0 0.46334-0.23167 0.57918-0.11584 0.11583-0.17376 0.0579-0.23167 0.0579-0.17376-0.0579-0.28959-0.17376-0.34751-0.57919-0.05792-0.40542-0.17375-0.92669-0.17375-1.39v-1.2742c0-0.23167 0.05792-0.40542 0.11584-0.57918 0 0 0.05792-0.0579 0.17376 0 0.17376 0.11584 0.23167 0.23167 0.23167 0.34751"/><path d="m22.299 375.48c0.05792 0.40543 0.05792 0.86878 0.17376 1.3321 0.11584 0.75294 0.23167 1.2163 0.28959 1.5059 0 0.23167-0.05792 0.46334-0.23167 0.57918-0.11584 0.11584-0.17376 0.0579-0.23167 0.0579-0.17376-0.0579-0.28959-0.17376-0.34751-0.57918-0.05792-0.46335-0.17375-0.9267-0.17375-1.39 0-0.46335-0.05792-0.69502 0-1.2742 0-0.23168 0.05792-0.40543 0.11584-0.52127 0 0 0.05792-0.0579 0.17376 0 0.11584 0.0579 0.17376 0.11584 0.23167 0.28959"/><path d="m22.356 379.3c0.05792 0.40543 0.11584 0.86877 0.17376 1.3321 0.11584 0.75294 0.23167 1.2163 0.28959 1.5059 0 0.23168 0 0.46335-0.23167 0.6371-0.11584 0.0579-0.17376 0.0579-0.23167 0.0579-0.17376-0.0579-0.28959-0.17375-0.34751-0.57918-0.05792-0.46335-0.17376-0.92669-0.17376-1.39 0-0.46334-0.05792-0.75294 0-1.2742 0.05792-0.23167 0.05792-0.40543 0.11584-0.52126 0-0.0579 0.05792-0.0579 0.17376-0.0579 0.11584 0.11583 0.17376 0.17375 0.23167 0.28959"/><path d="m22.299 383.3c0.05792 0.40543 0.11584 0.86877 0.17376 1.3321 0.11584 0.75294 0.23167 1.2163 0.28959 1.5059 0.05792 0.23168 0 0.46335-0.23167 0.57918-0.11584 0.0579-0.17376 0.0579-0.23167 0.0579-0.17376-0.0579-0.28959-0.17375-0.34751-0.57918-0.05792-0.46335-0.17375-0.92669-0.17375-1.39v-1.2742c0-0.23167 0.05792-0.46335 0.11584-0.52126 0-0.0579 0.05792-0.0579 0.17376 0 0.17376 0.0579 0.23167 0.11583 0.23167 0.28959"/><path d="m22.299 387.18c0.05792 0.34751 0.11584 0.86877 0.17376 1.3321 0.11584 0.75294 0.23167 1.2163 0.28959 1.5059 0.05792 0.23167 0 0.46334-0.23167 0.57918-0.11584 0.11583-0.17376 0.0579-0.23167 0.0579-0.17376-0.0579-0.28959-0.17376-0.34751-0.57919-0.05792-0.40542-0.17375-0.92669-0.17375-1.39v-1.2742c0-0.23167 0.05792-0.40542 0.11584-0.52126 0-0.0579 0.05792-0.0579 0.17376-0.0579 0.17376 0.11584 0.23167 0.23167 0.23167 0.34751"/><path d="m25.716 354.8c-0.05792 0.34751-0.28959 0.46334-0.57918 0.52126-0.34751 0.0579-0.52126 0.0579-0.81086-0.0579-0.28959-0.17375-0.52126-0.28959-0.69502-0.52126s-0.46335-0.46335-0.6371-0.98461c-0.17376-0.46335-0.34751-0.98461-0.28959-1.448 0.11584-0.46334 0.40543-0.69502 0.69502-0.75293 0.28959-0.0579 0.75294 0.0579 0.98461 0.28959 0.23167 0.23167 0.46335 0.46334 0.69502 0.69502 0.17376 0.17375 0.34751 0.52126 0.46335 0.81085 0.17376 0.28959 0.23167 0.6371 0.17376 0.92669 0.05792 0.17376 0.05792 0.28959 0 0.52127"/><path d="m32.203 357.7c0.34751-0.11584 0.81086-0.11584 1.1004-0.0579 0.28959 0.0579 0.57918 0.28959 0.69502 0.46335 0.11584 0.23167 0.17376 0.6371 0.23167 0.98461 0 0.17375 0 0.40543-0.05792 0.6371-0.11584 0.46335-0.23167 0.75294-0.46335 0.92669-0.28959 0.17376-0.52126 0.40543-0.86877 0.46335-0.34751 0.0579-0.69502 0.23167-1.1584 0.23167-0.46335 0.0579-0.81086-0.0579-1.1584-0.52126-0.34751-0.46335-0.34751-0.86878-0.23167-1.5059 0.11584-0.6371 0.40543-0.98461 0.81086-1.2163 0.17376-0.11584 0.40543-0.23168 0.57918-0.28959z"/><path d="m38.052 351.85c0.34751-0.11584 0.40543 0.11583 0.46335 0.69502 0.05792 0.52126 0.05792 0.81085 0 1.2742 0 0.46334-0.11584 0.98461-0.17376 1.39-0.05792 0.40542-0.23167 0.57918-0.40543 0.69501-0.23167 0.0579-0.52126-0.17375-0.57918-0.40542-0.11584-0.23168-0.05792-0.57919 0.05792-0.81086 0.05792-0.28959 0.11584-0.6371 0.17376-1.1004 0.05792-0.46334 0.11584-0.92669 0.17375-1.3321 0.05792-0.23167 0.17376-0.34751 0.28959-0.40542"/><path d="m38.11 347.62c0.11584-0.0579 0.17376 0 0.17376 0.0579 0.11584 0.17376 0.17376 0.34751 0.23167 0.69502 0.05792 0.46335 0.11584 0.92669 0.05792 1.6796l-0.05792 0.75294c-0.05792 0.46334-0.11584 0.81085-0.28959 0.98461-0.11584 0.17375-0.23167 0.17375-0.40543 0.0579-0.23167-0.17376-0.23167-0.34751-0.23167-0.57919 0-0.28959 0.05792-0.69501 0.17375-1.2742 0.11584-0.6371 0.17376-1.2163 0.17376-1.5638v-0.46335c-0.11584-0.17375-0.05792-0.28959 0.17376-0.34751"/><path d="m38.052 355.9c0.17375-0.0579 0.17375 0 0.17375 0 0.05792 0.11584 0.11584 0.2896 0.11584 0.52127 0.05792 0.52126 0.05792 0.81085 0 1.2742 0 0.46335-0.11584 0.92669-0.17376 1.39-0.05792 0.34751-0.17376 0.46334-0.34751 0.52126-0.05792 0-0.11584 0-0.23167-0.0579-0.23167-0.17375-0.23167-0.34751-0.23167-0.6371 0.11584-0.57918 0.23167-1.1004 0.28959-1.5059 0.05792-0.46335 0.11584-0.92669 0.17376-1.3321 0.05792-0.0579 0.17375-0.11584 0.23167-0.17376"/><path d="m32.203 353.88c0.34751-0.11584 0.81086-0.11584 1.1004-0.0579 0.28959 0.0579 0.57918 0.28959 0.69502 0.46334 0.11584 0.23168 0.17376 0.6371 0.23167 0.98461 0 0.17376 0 0.40543-0.05792 0.6371-0.11584 0.46335-0.23167 0.75294-0.46335 0.9267-0.23167 0.17375-0.52126 0.40542-0.86877 0.46334-0.34751 0.11584-0.69502 0.23168-1.1584 0.23168s-0.81086-0.0579-1.1584-0.46335c-0.34751-0.46335-0.34751-0.86877-0.23167-1.5059 0.11584-0.6371 0.40543-0.98461 0.81086-1.2163 0.17376-0.11584 0.40543-0.23167 0.57918-0.28959z"/><path d="m32.203 365.34c0.34751-0.11584 0.81086-0.11584 1.1004-0.0579 0.28959 0.0579 0.57918 0.28959 0.69502 0.46335 0.11584 0.23167 0.17376 0.6371 0.23167 0.98461 0 0.17375 0 0.40543-0.05792 0.6371-0.11584 0.46334-0.23167 0.75294-0.46335 0.92669-0.28959 0.17376-0.52126 0.40543-0.86877 0.46335-0.34751 0.0579-0.69502 0.23167-1.1584 0.23167s-0.81086-0.0579-1.1584-0.46335c-0.34751-0.46334-0.34751-0.86877-0.23167-1.5059 0.11584-0.6371 0.40543-0.92669 0.81086-1.2163 0.17376-0.11584 0.40543-0.23168 0.57918-0.2896z"/><path d="m32.203 361.52c0.34751-0.11583 0.81086-0.11583 1.1004-0.0579 0.28959 0.0579 0.57918 0.28959 0.69502 0.46334 0.11584 0.23168 0.17376 0.6371 0.23167 0.98461 0 0.17376 0 0.34751-0.05792 0.6371-0.11584 0.46335-0.23167 0.75294-0.46335 0.9267-0.28959 0.17375-0.52126 0.40542-0.86877 0.46334-0.34751 0.0579-0.69502 0.23167-1.1584 0.23167s-0.81086-0.0579-1.1584-0.46334c-0.34751-0.46335-0.34751-0.86878-0.23167-1.5059 0.11584-0.6371 0.40543-0.98461 0.81086-1.2163 0.17376-0.11584 0.40543-0.23167 0.57918-0.28959z"/><path d="m32.203 372.99c0.34751-0.11584 0.81086-0.11584 1.1004-0.0579 0.28959 0.0579 0.57918 0.28959 0.69502 0.46335 0.11584 0.23167 0.17376 0.6371 0.23167 0.98461 0 0.17375 0 0.34751-0.05792 0.6371-0.11584 0.46334-0.23167 0.75294-0.46335 0.92669-0.28959 0.17375-0.52126 0.34751-0.86877 0.46335-0.34751 0.0579-0.69502 0.23167-1.1584 0.23167-0.46335 0.0579-0.81086-0.0579-1.1584-0.46335-0.34751-0.46334-0.34751-0.86877-0.23167-1.5059 0.11584-0.6371 0.40543-0.98461 0.81086-1.2163 0.17376-0.11583 0.40543-0.23167 0.57918-0.28959z"/><path d="m32.203 369.17c0.34751-0.11583 0.81086-0.11583 1.1004-0.11583 0.28959 0.0579 0.57918 0.28959 0.69502 0.46334 0.11584 0.23168 0.17376 0.6371 0.23167 0.98461 0 0.17376 0 0.34751-0.05792 0.6371-0.11584 0.46335-0.23167 0.75294-0.46335 0.9267-0.23167 0.17375-0.52126 0.34751-0.86877 0.46334-0.34751 0.0579-0.69502 0.23168-1.1584 0.23168s-0.81086 0-1.1584-0.46335c-0.34751-0.46335-0.34751-0.86877-0.23167-1.5059 0.11584-0.63711 0.40543-0.98461 0.81086-1.2163 0.17376-0.11583 0.40543-0.23167 0.57918-0.28959z"/><path d="m32.203 380.58c0.34751-0.11584 0.81086-0.11584 1.1004-0.0579 0.28959 0.0579 0.57918 0.28959 0.69502 0.46335 0.11584 0.23167 0.17376 0.6371 0.23167 0.98461 0 0.17375 0 0.34751-0.05792 0.6371-0.11584 0.46334-0.23167 0.75294-0.46335 0.92669-0.28959 0.17376-0.52126 0.40543-0.86877 0.46335-0.34751 0.0579-0.69502 0.23167-1.1584 0.23167s-0.81086-0.0579-1.1584-0.46335c-0.34751-0.46334-0.34751-0.86877-0.23167-1.5059 0.11584-0.6371 0.40543-0.92669 0.81086-1.2163 0.17376-0.11584 0.40543-0.23168 0.57918-0.2896h0.05792z"/><path d="m32.203 376.75c0.34751-0.11584 0.81086-0.11584 1.1004-0.0579 0.28959 0.0579 0.57918 0.28959 0.69502 0.46334 0.11584 0.23168 0.17376 0.6371 0.23167 0.98461 0 0.17376 0 0.34751-0.05792 0.6371-0.11584 0.46335-0.23167 0.75294-0.46335 0.9267-0.23167 0.17375-0.52126 0.40542-0.86877 0.46334-0.34751 0.0579-0.69502 0.23168-1.1584 0.23168-0.46335 0.0579-0.81086-0.0579-1.1584-0.52127-0.34751-0.46334-0.34751-0.86877-0.23167-1.5059 0.11584-0.6371 0.40543-0.9267 0.81086-1.2163 0.17376-0.11583 0.40543-0.17375 0.57918-0.23167z"/><path d="m32.203 388.22c0.34751-0.11584 0.81086-0.11584 1.1004-0.0579 0.28959 0.0579 0.57918 0.23167 0.69502 0.46335 0.11584 0.23167 0.17376 0.6371 0.23167 0.98461 0 0.17375 0 0.40543-0.05792 0.6371-0.11584 0.46334-0.23167 0.75294-0.46335 0.92669-0.28959 0.17376-0.52126 0.40543-0.86877 0.46335-0.34751 0.0579-0.69502 0.23167-1.1584 0.23167-0.46335 0.0579-0.81086 0-1.1584-0.46335-0.34751-0.46334-0.34751-0.86877-0.23167-1.5059 0.11584-0.6371 0.40543-0.98461 0.81086-1.2163 0.17376-0.11584 0.40543-0.23168 0.57918-0.2896z"/><path d="m32.203 384.4c0.34751-0.11583 0.81086-0.11583 1.1004-0.0579 0.28959 0.0579 0.57918 0.28959 0.69502 0.46334 0.11584 0.23168 0.17376 0.6371 0.23167 0.98461 0 0.17376 0 0.40543-0.05792 0.6371-0.11584 0.46335-0.23167 0.75294-0.46335 0.9267-0.28959 0.17375-0.52126 0.40542-0.86877 0.46334-0.34751 0.0579-0.69502 0.23167-1.1584 0.23167s-0.81086-0.0579-1.1584-0.46334c-0.34751-0.46335-0.34751-0.86878-0.23167-1.5059 0.11584-0.6371 0.40543-0.92669 0.81086-1.2163 0.17376-0.11584 0.40543-0.23167 0.57918-0.28959h0.05792z"/><path d="m32.203 392.04c0.34751-0.11583 0.81086-0.11583 1.1004-0.0579 0.28959 0.0579 0.57918 0.28959 0.69502 0.46334 0.11584 0.23167 0.17376 0.6371 0.23167 0.98461 0 0.17376 0 0.40543-0.05792 0.6371-0.11584 0.46335-0.23167 0.75294-0.46335 0.9267-0.28959 0.17375-0.52126 0.3475-0.86877 0.46334-0.34751 0.0579-0.69502 0.23167-1.1584 0.23167s-0.81086 0-1.1584-0.46334c-0.34751-0.46335-0.34751-0.86878-0.23167-1.5059 0.11584-0.6371 0.40543-0.92669 0.81086-1.2163 0.17376-0.11584 0.40543-0.23167 0.57918-0.28959z"/><path d="m34.346 357.99c0-0.46334 0.17375-0.98461 0.46335-1.448 0.17375-0.2896 0.34751-0.46335 0.57918-0.69502 0.23167-0.23168 0.40543-0.46335 0.81086-0.57919 0.40543-0.11583 0.69502-0.0579 0.92669 0.17376 0.28959 0.23167 0.34751 0.75294 0.23167 1.2742-0.11584 0.52126-0.34751 0.98461-0.52126 1.2742-0.34751 0.40543-0.52126 0.6371-0.98461 0.92669-0.28959 0.17376-0.46335 0.17376-0.81086 0.11584-0.28959-0.0579-0.46335-0.17375-0.57918-0.57918-0.05792-0.17376-0.05792-0.28959-0.11584-0.46335"/><path d="m34.346 361.87c0-0.46334 0.17375-0.98461 0.46335-1.448 0.17375-0.28959 0.28959-0.46335 0.57918-0.69502 0.23167-0.23167 0.40543-0.46335 0.81086-0.57918 0.40543-0.11584 0.69502-0.0579 0.92669 0.17375 0.28959 0.23167 0.34751 0.75294 0.23167 1.2163-0.11584 0.52127-0.34751 1.0425-0.52126 1.2742-0.34751 0.40542-0.52126 0.69502-0.98461 0.92669-0.28959 0.17375-0.46335 0.17375-0.81086 0.11583-0.28959-0.0579-0.46335-0.23167-0.57918-0.57918-0.05792-0.11583-0.05792-0.23167-0.11584-0.40543"/><path d="m34.346 365.75c0-0.46335 0.17375-0.98461 0.46335-1.448 0.17375-0.28959 0.34751-0.46335 0.57918-0.69502s0.40543-0.46334 0.81086-0.57918c0.40543-0.11584 0.69502-0.0579 0.92669 0.17375 0.28959 0.23168 0.34751 0.75294 0.23167 1.2742-0.11584 0.52126-0.34751 0.98461-0.52126 1.2742-0.34751 0.46334-0.52126 0.69502-0.98461 0.92669-0.28959 0.17375-0.46335 0.17375-0.81086 0.11584-0.28959-0.0579-0.46335-0.23168-0.57918-0.52127-0.05792-0.23167-0.05792-0.34751-0.11584-0.52126"/><path d="m34.346 369.63c0-0.46335 0.17375-0.98461 0.46335-1.448 0.17375-0.28959 0.34751-0.46334 0.57918-0.69502 0.23167-0.23167 0.40543-0.46334 0.81086-0.57918 0.40543-0.11583 0.69502-0.0579 0.92669 0.17376 0.28959 0.28959 0.34751 0.75293 0.23167 1.2742-0.11584 0.52126-0.34751 0.98461-0.52126 1.2742-0.40543 0.46335-0.52126 0.69502-0.98461 0.92669-0.28959 0.17376-0.46335 0.17376-0.81086 0.11584-0.28959-0.0579-0.46335-0.23167-0.57918-0.57918-0.05792-0.17376-0.05792-0.34751-0.11584-0.46335"/><path d="m34.346 373.51c0-0.46334 0.17375-1.0425 0.46335-1.448 0.17375-0.28959 0.28959-0.46335 0.57918-0.69502 0.23167-0.23168 0.40543-0.46335 0.81086-0.57918 0.40543-0.11584 0.69502-0.0579 0.92669 0.17375 0.28959 0.23167 0.34751 0.75294 0.23167 1.2163-0.11584 0.52127-0.34751 1.0425-0.52126 1.3321-0.34751 0.40543-0.52126 0.6371-0.98461 0.9267-0.28959 0.17375-0.46335 0.17375-0.81086 0.11583-0.28959-0.0579-0.46335-0.23167-0.57918-0.57918-0.05792-0.17376-0.05792-0.34751-0.11584-0.46335"/><path d="m34.346 377.33c0-0.46335 0.17375-0.98461 0.46335-1.448 0.17375-0.28959 0.34751-0.46334 0.57918-0.69502 0.23167-0.23167 0.40543-0.46334 0.81086-0.57918 0.40543-0.11584 0.69502-0.0579 0.92669 0.17375 0.28959 0.23168 0.34751 0.75294 0.23167 1.2742-0.11584 0.52126-0.34751 0.98461-0.52126 1.3321-0.34751 0.46334-0.52126 0.69502-0.98461 0.92669-0.28959 0.17375-0.46335 0.17375-0.81086 0.11583-0.28959-0.0579-0.46335-0.23167-0.57918-0.57918-0.05792-0.17375-0.05792-0.34751-0.11584-0.52126"/><path d="m34.346 381.21c0-0.46335 0.17375-0.98461 0.46335-1.39 0.17375-0.28959 0.28959-0.46334 0.57918-0.69502 0.23167-0.23167 0.40543-0.46334 0.81086-0.57918 0.40543-0.11584 0.69502-0.0579 0.92669 0.23167 0.28959 0.23168 0.34751 0.75294 0.23167 1.2163-0.11584 0.52126-0.34751 1.0425-0.52126 1.2742-0.40543 0.46335-0.52126 0.69502-0.98461 0.92669-0.28959 0.17376-0.46335 0.17376-0.81086 0.11584-0.28959-0.0579-0.46335-0.23168-0.57918-0.57918-0.05792-0.17376-0.05792-0.34751-0.11584-0.52127"/><path d="m34.346 385.09c0-0.46334 0.17375-0.98461 0.46335-1.448 0.17375-0.28959 0.28959-0.46335 0.57918-0.69502 0.23167-0.23167 0.40543-0.46335 0.81086-0.57918 0.40543-0.11584 0.69502-0.0579 0.92669 0.17375 0.28959 0.23167 0.34751 0.75294 0.23167 1.2742-0.11584 0.52127-0.34751 0.98461-0.52126 1.2742-0.34751 0.40543-0.52126 0.69502-0.98461 0.9267-0.28959 0.17375-0.46335 0.17375-0.81086 0.11583-0.28959-0.0579-0.46335-0.23167-0.57918-0.52126-0.05792-0.17376-0.05792-0.34751-0.11584-0.52127"/><path d="m34.346 388.98c0-0.46335 0.17375-0.98461 0.46335-1.39 0.17375-0.28959 0.34751-0.46335 0.57918-0.69502s0.40543-0.46335 0.81086-0.57918c0.40543-0.11584 0.69502-0.0579 0.92669 0.17375 0.28959 0.23167 0.34751 0.75294 0.23167 1.2742-0.11584 0.52127-0.34751 0.98461-0.52126 1.2742-0.34751 0.46334-0.52126 0.69501-0.98461 0.92669-0.28959 0.17375-0.46335 0.17375-0.81086 0.11583-0.28959-0.0579-0.46335-0.23167-0.57918-0.52126-0.05792-0.23167-0.05792-0.40543-0.11584-0.57918"/><path d="m34.403 392.68c-0.05792-0.46334 0.17376-0.98461 0.40543-1.448 0.17375-0.28959 0.34751-0.46335 0.57918-0.69502s0.40543-0.46335 0.81086-0.57918c0.40543-0.11584 0.69502-0.0579 0.92669 0.17375 0.28959 0.23167 0.34751 0.75294 0.23167 1.2742-0.11584 0.52127-0.28959 0.98461-0.57918 1.3321-0.34751 0.46335-0.52126 0.6371-0.98461 0.9267-0.28959 0.17375-0.46335 0.17375-0.81086 0.11583-0.28959-0.0579-0.46335-0.23167-0.57918-0.52126 0.05792-0.28959 0-0.46335 0-0.57919"/><path d="m38.052 359.78c0.17375-0.0579 0.17375 0 0.17375 0 0.05792 0.11583 0.05792 0.28959 0.11584 0.52126 0.05792 0.52127 0.05792 0.75294 0 1.2742-0.05792 0.46335-0.11584 0.98461-0.17376 1.39-0.05792 0.40543-0.17376 0.46335-0.34751 0.52127 0 0-0.11584 0.0579-0.17376-0.0579-0.23167-0.17376-0.28959-0.34751-0.23167-0.6371 0.11584-0.57919 0.23167-1.1004 0.28959-1.5059 0.05792-0.46334 0.11584-0.98461 0.17376-1.3321 0-0.0579 0.05792-0.11583 0.17376-0.17375"/><path d="m38.052 363.72c0.17375-0.0579 0.17375 0 0.17375 0.0579 0.05792 0.11583 0.05792 0.28959 0.11584 0.52126 0.05792 0.52127 0.05792 0.81086 0 1.2742-0.05792 0.46335-0.11584 0.92669-0.17376 1.39-0.05792 0.40543-0.17376 0.46335-0.34751 0.52126-0.05792 0-0.11584 0-0.23167-0.0579-0.23167-0.17376-0.23167-0.34751-0.23167-0.57919 0.11584-0.57918 0.23167-1.1004 0.28959-1.5059 0.05792-0.46335 0.11584-0.98461 0.17376-1.3321 0.05792-0.17376 0.11584-0.23167 0.23167-0.28959"/><path d="m38.11 367.43c0.11584-0.0579 0.17376 0 0.17376 0 0.05792 0.11583 0.05792 0.28959 0.11584 0.52126 0.05792 0.52127 0.05792 0.81086 0 1.2742 0 0.46335-0.11584 0.92669-0.17376 1.39-0.05792 0.40543-0.17375 0.52126-0.34751 0.57918 0 0-0.11584 0.0579-0.23167-0.0579-0.17376-0.17375-0.23167-0.3475-0.23167-0.6371 0.11584-0.57918 0.23167-1.1004 0.28959-1.5059 0.05792-0.46335 0.11584-0.92669 0.17376-1.3321 0.05792-0.0579 0.11584-0.17376 0.23167-0.23167"/><path d="m38.052 371.37c0.17375-0.0579 0.17375 0 0.17375 0 0.05792 0.11583 0.11584 0.28959 0.11584 0.52126 0.05792 0.52127 0.05792 0.81086 0 1.2742 0 0.46335-0.11584 0.9267-0.17376 1.39-0.05792 0.40543-0.17376 0.46335-0.34751 0.52127-0.05792 0-0.11584 0-0.23167-0.0579-0.23167-0.17376-0.23167-0.34751-0.23167-0.57918 0.11584-0.57919 0.23167-1.1004 0.28959-1.5059 0.05792-0.46335 0.11584-0.92669 0.17376-1.3321 0.05792-0.11584 0.17375-0.23167 0.23167-0.23167"/><path d="m38.052 375.13c0.17375-0.0579 0.17375 0 0.17375 0 0.05792 0.11584 0.11584 0.2896 0.11584 0.57919 0.05792 0.52126 0.05792 0.81085 0 1.2742 0 0.46334-0.11584 0.92669-0.17376 1.39-0.05792 0.40542-0.17376 0.52126-0.34751 0.57918-0.05792 0-0.11584 0.0579-0.23167-0.0579-0.23167-0.17375-0.23167-0.34751-0.23167-0.57918 0.11584-0.57918 0.23167-1.1004 0.28959-1.5059 0.05792-0.46334 0.11584-0.92669 0.17376-1.3321 0.05792-0.23167 0.17375-0.28959 0.23167-0.34751"/><path d="m38.052 379.07c0.17375-0.0579 0.17375 0 0.17375 0.0579 0.05792 0.11584 0.11584 0.2896 0.11584 0.52127 0.05792 0.52126 0.05792 0.81085 0 1.2742 0 0.46335-0.11584 0.92669-0.17376 1.39-0.05792 0.34751-0.17376 0.46334-0.34751 0.52126-0.05792 0-0.11584 0-0.23167-0.0579-0.23167-0.17375-0.23167-0.34751-0.23167-0.57918 0.11584-0.57918 0.23167-1.1004 0.28959-1.5059 0.05792-0.46335 0.11584-0.9267 0.17376-1.3321 0.05792-0.17376 0.17375-0.23168 0.23167-0.28959"/><path d="m38.052 382.95c0.17375-0.0579 0.17375 0 0.17375 0 0.05792 0.11583 0.11584 0.28959 0.11584 0.52126 0.05792 0.52127 0.05792 0.75294 0 1.2742 0 0.46335-0.11584 0.9267-0.17376 1.39-0.05792 0.40543-0.17376 0.46335-0.34751 0.57918-0.05792 0-0.11584 0-0.23167-0.0579-0.23167-0.17376-0.23167-0.34751-0.23167-0.6371 0.11584-0.57919 0.23167-1.1004 0.28959-1.5059 0.05792-0.46334 0.11584-0.92669 0.17376-1.3321 0.05792-0.11584 0.17375-0.23167 0.23167-0.23167"/><path d="m38.052 386.77c0.17375-0.0579 0.17375 0 0.17375 0.0579 0.05792 0.11584 0.11584 0.28959 0.11584 0.52127 0.05792 0.52126 0.05792 0.75293 0 1.2742 0 0.46334-0.11584 0.92669-0.17376 1.39-0.05792 0.3475-0.17376 0.52126-0.34751 0.52126-0.05792 0-0.11584 0.0579-0.23167-0.0579-0.23167-0.17375-0.23167-0.34751-0.23167-0.6371 0.11584-0.57918 0.23167-1.1004 0.28959-1.5059 0.05792-0.46335 0.11584-0.9267 0.17376-1.3321 0.05792-0.11584 0.17375-0.17376 0.23167-0.23168"/><path d="m34.346 354.22c0-0.46334 0.17375-0.98461 0.46335-1.448 0.17375-0.28959 0.34751-0.46335 0.57918-0.69502s0.40543-0.46335 0.81086-0.57918c0.40543-0.11584 0.69502-0.0579 0.92669 0.23167 0.28959 0.23167 0.34751 0.75294 0.23167 1.2742-0.11584 0.52127-0.34751 0.98461-0.52126 1.2742-0.34751 0.40543-0.52126 0.69502-0.98461 0.9267-0.28959 0.17375-0.46335 0.17375-0.81086 0.11583-0.28959-0.0579-0.46335-0.23167-0.57918-0.52126-0.05792-0.23168-0.05792-0.40543-0.11584-0.57919"/><path d="m26.237 345.48c0 0.23167-0.23167 0.57918-0.46335 0.75294-0.6371 0.52126-1.7375 1.2163-2.8959 1.448-0.28959 0.0579-0.6371-0.28959-0.81086-0.57918-0.46335-0.86877-0.46335-2.0851-0.17376-2.7801 0.17376-0.52126 0.57918-1.0425 0.98461-0.92669 1.2163 0.28959 2.4905 1.0425 2.8959 1.448 0.34751 0.28959 0.46335 0.40543 0.46335 0.6371"/><path d="m31.276 349.19c0.23167-0.0579 0.57918 0.0579 0.86877 0.23167 0.6371 0.46335 1.6217 1.2742 2.2009 2.3746 0.11584 0.23167-0.11584 0.69502-0.28959 0.98461-0.6371 0.69502-1.8534 1.0425-2.6063 0.98461-0.52126-0.0579-1.1584-0.28959-1.1584-0.6371-0.11584-1.2742 0.23167-2.7222 0.46335-3.2434 0.23167-0.46335 0.28959-0.6371 0.52126-0.69502"/><path d="m28.901 349.24c0.23167 0.0579 0.46335 0.40542 0.57918 0.69501 0.28959 0.75294 0.57918 2.0271 0.46335 3.2434-0.05792 0.28959-0.46335 0.52126-0.81086 0.57918-0.92669 0.17375-2.0851-0.23167-2.6642-0.69502-0.40543-0.34751-0.75294-0.86877-0.57918-1.2163 0.6371-1.1004 1.7375-2.0851 2.2588-2.3746 0.40543-0.23167 0.52126-0.28959 0.75294-0.23167"/><path d="m27.106 347.68c0.11584 0.23168 0.11584 0.57918 0.05792 0.86878-0.23167 0.81085-0.69502 1.9692-1.5059 2.8959-0.23167 0.23167-0.69502 0.11584-0.98461 0-0.86877-0.40543-1.5638-1.448-1.7375-2.2009-0.11584-0.52127-0.11584-1.1584 0.23167-1.3321 1.1584-0.52127 2.6063-0.63711 3.1855-0.52127 0.46335 0.0579 0.57918 0.11584 0.75294 0.28959"/><path d="m33.94 345.48c0-0.23167 0.23167-0.57918 0.46335-0.75294 0.6371-0.52126 1.7375-1.1584 2.8959-1.39 0.28959-0.0579 0.6371 0.28959 0.81086 0.57919 0.46335 0.86877 0.40543 2.085 0.11584 2.7801-0.23167 0.52127-0.57918 0.98461-0.98461 0.92669-1.2163-0.28959-2.4905-1.0425-2.8959-1.5059-0.28959-0.28959-0.40543-0.40543-0.40543-0.6371"/><path d="m31.334 341.89c-0.23167-0.0579-0.46335-0.40543-0.57918-0.69502-0.28959-0.75294-0.57918-2.0271-0.40543-3.2434 0-0.2896 0.46335-0.52127 0.81086-0.57919 0.92669-0.17375 2.0851 0.23168 2.6642 0.69502 0.40543 0.34751 0.75294 0.86878 0.57918 1.2163-0.6371 1.1004-1.7375 2.085-2.2588 2.3746-0.46335 0.23168-0.57918 0.2896-0.81086 0.23168"/><path d="m28.959 341.83c-0.23167 0.11584-0.6371-0.0579-0.86877-0.17376-0.69502-0.46334-1.6217-1.2742-2.2588-2.3746-0.11584-0.2896 0.05792-0.75294 0.28959-0.98461 0.6371-0.69502 1.7955-1.1004 2.5484-1.0425 0.52126 0.0579 1.1584 0.23167 1.1584 0.6371 0.11584 1.2742-0.17376 2.7222-0.40543 3.2434-0.17376 0.52126-0.23167 0.6371-0.46335 0.69502"/><path d="m33.245 343.22c-0.11584-0.17376-0.11584-0.57919-0.05792-0.86878 0.23167-0.81085 0.75294-1.9692 1.5638-2.8959 0.17376-0.23167 0.69502-0.11584 0.98461 0 0.86877 0.40543 1.5638 1.448 1.7375 2.2009 0.11584 0.52127 0.11584 1.1584-0.23167 1.3321-1.1584 0.52127-2.6063 0.6371-3.1855 0.52127-0.52126-0.0579-0.69502-0.11584-0.81086-0.28959"/><path d="m33.245 347.74c0.11584-0.17375 0.52126-0.28959 0.81086-0.28959 0.81086-0.0579 2.0851 0.0579 3.1855 0.57918 0.28959 0.11584 0.34751 0.6371 0.28959 0.98461-0.11584 0.98461-0.86877 1.9692-1.5059 2.3746-0.46335 0.28959-1.1004 0.46335-1.3321 0.17376-0.86877-0.98461-1.39-2.3167-1.5059-2.8959-0.05792-0.57918-0.11584-0.69502 0.05792-0.92669"/><path d="m26.99 343.22c-0.17375 0.23167-0.52126 0.34751-0.81086 0.34751-0.81086 0.0579-2.0851-0.0579-3.1855-0.57919-0.28959-0.11583-0.34751-0.6371-0.28959-0.98461 0.11584-0.98461 0.86877-1.9692 1.448-2.3746 0.46335-0.2896 1.0425-0.46335 1.3321-0.17376 0.86877 0.92669 1.448 2.3167 1.5059 2.8959 0.11584 0.52127 0.11584 0.6371 0 0.86878"/><path d="m30.175 349.13c1.9692 0 3.5909-1.6217 3.5909-3.6488s-1.6217-3.6488-3.5909-3.6488c-1.9692 0-3.5909 1.6217-3.5909 3.6488s1.5638 3.6488 3.5909 3.6488"/><path d="m88.094 391.52c-4.286 2.5484-9.3828 3.3593-14.422 3.3593-6.371 0-12.974-1.448-17.781-5.7339-4.8651-4.228-7.0081-10.309-7.0081-16.507 0-13.9 11.699-20.908 25.079-20.908 5.1547 0 9.2669 0.6371 14.248 2.2588 0.52126 0.17376 1.2163 0.28959 0.98461 1.2163-0.34751 1.9113-0.86877 6.6606-0.98461 9.3248h-2.4326c-0.05792-1.7375-0.11584-3.4751-0.34751-5.2126-3.0117-3.0697-6.9502-4.1701-11.236-4.1701-4.6335 0-9.0932 1.6217-12.163 5.0968-2.7801 3.0697-3.7068 7.5873-3.7068 11.642 0 5.0968 1.3321 9.9619 4.981 13.785 3.8226 3.9964 7.9927 5.2706 13.495 5.2706 3.7068 0 8.8036-1.2742 11.989-3.0697l0.75294 0.69502z"/><path d="m104.19 359.73c-0.0579-4.3439-0.2896-4.8651-5.3285-4.7493v-2.5484c4.1122 0.17375 7.3556 0.34751 9.7882 0.34751s5.5602-0.17376 9.7303-0.34751v2.6063c-5.0968-0.17375-5.3285 0.28959-5.3285 4.6914v27.222c0 4.3439 0.23167 4.8651 5.3285 4.6914v2.6063c-4.1701-0.17376-7.2977-0.34751-9.7303-0.34751s-5.676 0.11583-9.7882 0.34751v-2.5484c5.0389 0.11584 5.2706-0.3475 5.3285-4.7493z"/><path d="m172.6 360.65-6.7764 13.263-9.209 19.229-0.69501 1.39h-2.143c-0.11584-0.57918-1.448-3.3593-2.2588-5.0389l-14.422-28.843v26.295c0 4.3439 0.23168 4.8651 5.3285 4.6914v2.6063c-2.9538-0.17376-5.2706-0.34751-7.066-0.34751-1.7955 0-4.1701 0.11583-7.2398 0.34751v-2.6063c5.0968 0.17375 5.3285-0.28959 5.3285-4.6914v-27.222c0-4.3439-0.23167-4.8651-5.3285-4.6914v-2.6063c3.7068 0.17375 6.0235 0.34751 7.819 0.34751 1.8534 0 4.1122-0.17376 7.2398-0.34751 1.1004 2.6063 3.2434 7.2398 4.6914 9.904l9.904 20.04c0.98461-1.7376 1.9113-3.533 2.7801-5.3285 4.5755-9.4986 10.078-20.735 11.757-24.615 3.0697 0.17375 5.3864 0.34751 7.2398 0.34751 1.9113 0 4.1701-0.17376 7.2977-0.34751v2.6063c-5.0968-0.17375-5.3285 0.28959-5.3285 4.6914v27.222c0 4.3439 0.23168 4.8651 5.3285 4.6914v2.6063c-4.1122-0.17376-7.2977-0.34751-9.7303-0.34751-2.4326 0-5.6181 0.11583-9.7882 0.34751v-2.5484c5.0389 0.11584 5.2706-0.3475 5.3285-4.7493z"/><path d="m240.59 360.65-6.7764 13.263-9.209 19.229-0.69502 1.39h-2.143c-0.11584-0.57918-1.448-3.3593-2.2588-5.0389l-14.422-28.843v26.295c0 4.3439 0.23168 4.8651 5.3285 4.6914v2.6063c-2.9538-0.17376-5.2706-0.34751-7.066-0.34751-1.7955 0-4.1701 0.11583-7.2398 0.34751v-2.6063c5.0968 0.17375 5.3285-0.28959 5.3285-4.6914v-27.222c0-4.3439-0.23167-4.8651-5.3285-4.6914v-2.6063c3.7068 0.17375 6.0235 0.34751 7.819 0.34751 1.9113 0 4.1122-0.17376 7.2398-0.34751 1.1004 2.6063 3.2434 7.2398 4.6914 9.904l9.904 20.04c0.98461-1.7376 1.8534-3.533 2.7801-5.3285 4.5756-9.4986 10.078-20.735 11.757-24.615 3.0697 0.17375 5.3864 0.34751 7.2398 0.34751 1.9113 0 4.1701-0.17376 7.2977-0.34751v2.6063c-5.0968-0.17375-5.3285 0.28959-5.3285 4.6914v27.222c0 4.3439 0.23168 4.8651 5.3285 4.6914v2.6063c-4.1122-0.17376-7.2977-0.34751-9.7303-0.34751-2.4326 0-5.6181 0.11583-9.7882 0.34751v-2.5484c5.0389 0.11584 5.2706-0.3475 5.3285-4.7493z"/><path d="m286.7 372.29c4.981-7.8769 9.3828-14.537 11.815-19.576h4.8072v1.1584l-2.5484 3.4751-6.6606 9.7882-2.838 4.3439-1.9113 3.8805c-0.34751 0.81085-0.34751 1.8534-0.34751 2.838v8.6298c0 4.3439 0.23167 4.8651 5.3285 4.6914v2.6063c-4.1701-0.17375-7.2977-0.34751-9.7303-0.34751-2.4326 0-5.6181 0.11584-9.7882 0.34751v-2.5484c5.0389 0.11583 5.2706-0.34751 5.3285-4.7493v-7.6452c0-1.2742-0.23167-2.5484-0.57918-3.2434-0.63711-1.39-1.448-2.6063-2.2009-3.9384l-6.3131-9.7882c-0.92669-1.2742-2.2009-2.8959-3.3013-4.0543-1.448-1.5059-3.2434-1.9692-4.923-1.9692v-2.2588l9.9619-2.2009c3.4172 1.8534 5.3285 5.0389 7.124 8.2244z"/><path d="m334.48 386.89c0 4.3439 0.23167 4.8651 5.3285 4.6914v2.6063c-4.1701-0.17376-7.2977-0.34751-9.7303-0.34751-2.4326 0-5.676 0.11584-9.7882 0.34751v-2.5484c5.0389 0.11583 5.2706-0.34751 5.3285-4.7493v-30.407h-9.209c-1.5059 0.17375-2.085 0.57918-2.838 1.9113-0.11584 1.0425-0.17375 2.5484-0.34751 4.0543h-2.4905c0.11583-2.9538-0.23168-6.8344-0.17376-10.078 8.3402 0.17376 14.653 0.34751 19.634 0.34751s11.178-0.17375 19.808-0.34751c-0.17375 2.7222-0.52126 6.4289-0.81085 10.078h-2.4326c0-0.86878 0-1.6796-0.11584-2.5484-0.46334-3.0118 0.17376-3.4172-3.3013-3.4751h-8.8615z"/></g></svg>
